<?xml version="1.0" standalone="no"?>
<!DOCTYPE svg PUBLIC "-//W3C//DTD SVG 20010904//EN"
 "http://www.w3.org/TR/2001/REC-SVG-20010904/DTD/svg10.dtd">
<svg version="1.0" xmlns="http://www.w3.org/2000/svg"
 width="500.000000pt" height="500.000000pt" viewBox="0 0 500.000000 500.000000"
 preserveAspectRatio="xMidYMid meet">

<g transform="translate(0.000000,500.000000) scale(0.100000,-0.100000)"
fill="#000000" stroke="none">
<path d="M2278 4335 c-368 -50 -664 -175 -939 -396 -672 -542 -878 -1468 -499
-2244 405 -826 1359 -1228 2230 -938 472 157 850 484 1073 929 185 370 239
791 153 1197 -110 519 -431 959 -894 1226 -324 188 -761 275 -1124 226z m407
-25 c433 -49 833 -246 1125 -557 143 -151 235 -287 326 -478 197 -416 226
-914 79 -1350 -40 -120 -136 -313 -209 -422 -267 -401 -687 -683 -1159 -779
-238 -49 -544 -42 -787 18 -203 49 -438 158 -623 288 -118 83 -332 297 -419
420 -70 99 -176 296 -222 413 -99 252 -141 621 -100 896 60 413 247 772 552
1062 136 129 261 217 432 302 321 161 666 225 1005 187z"/>
<path d="M2491 4103 c1 -38 36 -118 52 -121 16 -3 40 38 61 106 14 44 -15 22
-37 -29 l-22 -52 -18 57 c-17 53 -38 76 -36 39z"/>
<path d="M2276 4038 c6 -60 17 -88 29 -76 3 3 3 35 -1 72 -5 47 -11 66 -21 66
-11 0 -13 -12 -7 -62z"/>
<path d="M2787 4018 l-14 -63 40 -12 c22 -7 42 -11 45 -9 9 9 -10 26 -29 26
-13 0 -19 7 -19 21 0 19 4 21 31 15 22 -4 29 -2 27 7 -3 6 -14 13 -26 15 -14
2 -22 11 -22 23 0 17 5 19 35 13 21 -4 35 -2 35 4 0 9 -45 22 -76 22 -7 0 -18
-25 -27 -62z"/>
<path d="M2054 4044 c13 -35 18 -64 10 -64 -5 1 -25 14 -44 30 -47 41 -58 26
-35 -50 18 -59 35 -79 35 -41 0 11 -4 31 -10 45 -12 34 -5 33 37 -4 35 -31 63
-39 63 -18 0 31 -35 118 -48 118 -9 0 -12 -6 -8 -16z"/>
<path d="M3061 3966 c-29 -66 -33 -84 -21 -91 5 -3 14 5 20 19 13 35 30 33 30
-3 0 -16 7 -34 15 -41 13 -11 15 -8 15 21 0 23 6 38 20 47 38 23 23 60 -33 81
-25 10 -27 8 -46 -33z m53 8 c23 -9 21 -44 -2 -44 -25 0 -31 7 -25 31 6 21 6
21 27 13z"/>
<path d="M1760 3939 c0 -5 10 -27 22 -48 19 -33 20 -41 9 -55 -21 -25 -36 -19
-61 27 -29 53 -27 50 -39 43 -6 -4 1 -25 18 -54 22 -38 33 -48 59 -50 24 -2
34 2 47 22 15 23 15 27 -10 75 -23 47 -45 66 -45 40z"/>
<path d="M3337 3858 c-21 -11 -22 -38 -2 -64 19 -25 19 -44 0 -44 -9 0 -20 12
-26 27 -7 19 -13 23 -21 15 -14 -14 -4 -37 25 -57 45 -29 84 13 53 57 -9 12
-16 28 -16 35 0 21 27 15 33 -7 7 -25 27 -26 27 -1 0 31 -44 56 -73 39z"/>
<path d="M3531 3654 c-40 -45 -49 -64 -33 -64 13 0 92 84 92 98 0 23 -18 12
-59 -34z"/>
<path d="M1336 3643 c-3 -4 8 -22 26 -41 l33 -34 -35 7 c-19 4 -45 9 -56 12
-40 9 -37 -18 7 -63 40 -41 69 -56 69 -36 0 5 -11 19 -25 32 -35 33 -31 39 22
29 70 -13 76 2 23 56 -45 46 -52 50 -64 38z"/>
<path d="M3720 3542 c0 -4 6 -14 12 -20 9 -9 9 -15 2 -20 -53 -36 -84 -66 -75
-75 6 -6 24 2 51 23 35 27 45 31 60 22 31 -19 30 -1 -2 39 -30 37 -48 49 -48
31z"/>
<path d="M2346 3290 l-139 -220 -348 0 c-273 0 -349 -3 -349 -12 1 -20 974
-1553 985 -1552 12 0 984 1533 985 1552 0 9 -76 12 -349 12 l-349 0 -138 220
c-77 121 -143 220 -149 220 -5 0 -72 -99 -149 -220z m139 -184 c0 -178 -3
-327 -7 -331 -6 -7 -188 110 -188 121 0 12 188 534 192 534 2 0 3 -146 3 -324z
m129 38 c47 -133 86 -244 86 -248 0 -9 -181 -128 -187 -123 -3 3 -5 106 -5
229 0 346 2 425 11 403 5 -11 47 -129 95 -261z m-243 45 c-118 -331 -93 -290
-242 -403 -72 -54 -132 -96 -133 -95 -4 5 436 700 441 696 2 -2 -28 -91 -66
-198z m281 51 c47 -74 144 -229 217 -344 73 -114 130 -210 128 -213 -3 -2 -65
44 -138 102 l-134 107 -82 229 c-96 269 -99 277 -85 264 5 -5 48 -71 94 -145z
m-468 -202 c-4 -7 -77 -124 -162 -261 -123 -195 -158 -245 -168 -235 -14 16
-304 476 -311 494 -4 12 50 14 322 14 258 0 325 -3 319 -12z m1263 -3 c-8 -19
-296 -476 -311 -493 -9 -9 -47 43 -168 235 -85 137 -158 254 -162 261 -6 9 61
12 319 12 283 0 326 -2 322 -15z m-1039 -249 l72 -47 0 -87 0 -86 -97 -148
c-54 -81 -100 -148 -103 -148 -3 0 -31 59 -64 131 l-58 131 51 143 c27 78 55
154 61 169 l10 27 28 -19 c15 -10 60 -40 100 -66z m357 -66 c27 -73 48 -140
48 -147 0 -17 -116 -313 -123 -313 -3 0 -45 70 -94 156 -94 165 -91 152 -87
287 1 36 4 40 99 101 53 35 100 61 103 57 4 -3 28 -67 54 -141z m-566 -12
c-28 -79 -73 -208 -101 -288 -28 -80 -54 -149 -58 -153 -7 -8 -160 222 -160
238 0 4 15 32 33 62 26 44 61 77 181 169 81 63 150 114 152 114 2 0 -19 -64
-47 -142z m720 5 c102 -84 151 -131 169 -163 l25 -46 -53 -84 c-29 -47 -64
-103 -78 -124 -30 -48 -26 -53 -92 133 -28 78 -72 204 -100 281 -38 108 -46
138 -32 130 9 -5 82 -62 161 -127z m-329 -328 c89 -154 93 -165 120 -290 16
-71 30 -140 32 -151 3 -25 -241 -419 -252 -407 -6 7 -237 371 -253 400 -4 6 6
77 23 157 l29 146 102 155 c56 86 103 154 104 153 2 -2 45 -75 95 -163z m298
-5 l52 -149 -86 -136 c-47 -75 -88 -134 -91 -131 -3 2 -17 63 -32 133 l-28
129 59 152 c33 84 63 152 66 152 4 0 31 -67 60 -150z m-675 -17 l54 -121 -26
-131 c-14 -72 -28 -131 -31 -131 -3 1 -40 57 -82 125 l-78 124 48 135 c26 74
50 132 53 128 4 -4 32 -62 62 -129z"/>
<path d="M1110 3357 c0 -16 72 -116 83 -117 5 0 6 12 3 28 -6 30 12 61 35 59
7 -1 15 2 17 8 3 10 -77 34 -115 35 -13 0 -23 -6 -23 -13z m71 -32 c-1 -15
-24 -12 -29 3 -3 9 2 13 12 10 10 -1 17 -7 17 -13z"/>
<path d="M3855 3284 c-22 -14 -46 -28 -54 -33 -8 -5 -11 -13 -7 -19 7 -12 122
50 119 64 -3 15 -18 12 -58 -12z"/>
<path d="M980 3130 c0 -11 96 -60 118 -60 28 0 8 19 -47 44 -66 29 -71 30 -71
16z"/>
<path d="M3980 3103 c-8 -3 -34 -14 -57 -23 l-42 -19 13 -37 c7 -21 18 -40 25
-42 12 -4 11 10 -6 54 -2 6 3 14 12 18 10 4 19 -3 27 -19 16 -35 29 -31 26 6
-4 42 16 47 32 9 7 -18 17 -27 22 -22 9 9 -17 83 -30 81 -4 0 -14 -3 -22 -6z"/>
<path d="M911 2906 c-7 -8 -11 -27 -9 -43 4 -38 33 -41 69 -7 23 22 32 25 42
15 9 -10 7 -16 -12 -30 -17 -13 -20 -20 -12 -26 17 -10 51 23 51 50 0 48 -47
60 -78 20 -22 -28 -42 -33 -42 -10 0 8 4 15 9 15 5 0 11 7 15 15 7 19 -18 20
-33 1z"/>
<path d="M4048 2828 c-9 -7 -18 -24 -20 -38 -2 -15 -11 -26 -21 -28 -16 -3
-18 1 -12 28 5 25 4 31 -6 28 -8 -3 -14 -19 -14 -38 0 -64 64 -67 75 -4 7 39
36 40 32 2 -3 -30 12 -38 22 -12 10 25 7 42 -10 58 -19 19 -25 20 -46 4z"/>
<path d="M856 2630 c14 -14 134 -25 134 -12 0 15 -26 22 -88 22 -37 0 -53 -3
-46 -10z"/>
<path d="M868 2423 c-34 -9 -18 -23 25 -23 l42 0 -42 -36 c-24 -20 -43 -40
-43 -45 0 -5 32 -9 70 -9 56 0 70 3 70 15 0 11 -11 15 -42 15 l-43 0 43 36
c23 20 40 40 36 45 -5 9 -84 11 -116 2z"/>
<path d="M4000 2346 c0 -8 5 -18 10 -21 18 -11 11 -54 -11 -66 -12 -6 -17 -15
-12 -20 14 -14 138 23 138 41 0 8 -28 30 -62 48 -48 25 -63 29 -63 18z m74
-55 c3 -5 -1 -12 -10 -15 -22 -9 -24 -8 -24 9 0 16 25 21 34 6z"/>
<path d="M923 2119 c-49 -14 -42 -32 10 -23 69 12 72 11 72 -16 0 -21 -7 -27
-48 -39 -48 -15 -60 -39 -16 -33 49 7 94 36 97 63 6 51 -39 70 -115 48z"/>
<path d="M3946 2062 c-12 -11 -5 -20 18 -26 22 -5 24 -10 19 -40 -4 -28 -1
-36 17 -46 12 -6 28 -9 36 -6 15 6 49 75 41 83 -10 9 -126 41 -131 35z m92
-50 c15 -10 5 -42 -13 -42 -18 0 -28 17 -21 35 6 17 15 18 34 7z"/>
<path d="M1061 1818 c-40 -18 -45 -19 -53 -4 -19 34 -26 3 -8 -37 21 -47 45
-64 35 -25 -6 22 -1 27 44 46 28 11 51 26 51 31 0 15 -18 12 -69 -11z"/>
<path d="M3845 1809 c-9 -13 -11 -11 52 -43 56 -28 73 -32 73 -16 0 16 -118
71 -125 59z"/>
<path d="M1743 1393 c-4 -10 0 -21 11 -27 53 -33 54 -26 -13 -141 -59 -100
-61 -108 -44 -121 10 -7 21 -14 24 -14 3 0 32 45 64 100 32 56 62 103 66 106
5 3 22 -2 38 -11 37 -19 47 -19 55 0 4 11 -21 30 -88 70 -52 30 -97 55 -100
55 -4 0 -10 -8 -13 -17z"/>
<path d="M3190 1385 c-11 -13 0 -35 66 -135 44 -66 81 -120 84 -119 3 0 13 6
23 13 17 13 13 22 -60 135 -43 66 -83 121 -89 121 -6 0 -17 -7 -24 -15z"/>
<path d="M2953 1266 c-28 -12 -55 -24 -58 -27 -9 -9 97 -269 109 -269 6 0 18
4 26 10 12 8 12 16 -4 60 -10 28 -17 52 -15 53 2 1 25 13 51 26 58 29 75 65
54 116 -25 60 -74 69 -163 31z m105 -38 c22 -22 14 -57 -18 -73 -44 -23 -55
-19 -72 24 -15 37 -15 39 6 49 29 15 70 14 84 0z"/>
<path d="M2006 1155 c-34 -123 -30 -156 23 -192 51 -34 115 -32 150 6 35 37
89 220 69 233 -28 18 -41 1 -68 -89 -31 -104 -42 -123 -77 -123 -69 0 -78 36
-39 170 19 64 22 86 13 92 -33 21 -43 8 -71 -97z"/>
<path d="M2648 1193 c-19 -5 -25 -24 -58 -173 -11 -52 -23 -103 -26 -113 -5
-15 -1 -18 22 -15 22 2 30 10 37 35 10 34 28 43 89 43 32 0 40 -5 53 -30 16
-31 30 -36 53 -21 11 6 -2 39 -58 145 -39 75 -77 135 -83 135 -7 -1 -20 -3
-29 -6z m50 -119 c12 -25 20 -50 17 -55 -4 -5 -22 -9 -41 -9 -29 0 -34 3 -30
18 3 9 8 34 12 55 3 20 9 37 13 37 4 0 17 -21 29 -46z"/>
</g>
</svg>
